<?xml version="1.0" standalone="no"?>
<!DOCTYPE svg PUBLIC "-//W3C//DTD SVG 20010904//EN"
 "http://www.w3.org/TR/2001/REC-SVG-20010904/DTD/svg10.dtd">
<svg version="1.0" xmlns="http://www.w3.org/2000/svg"
 width="907.000000pt" height="495.000000pt" viewBox="0 0 907.000000 495.000000"
 preserveAspectRatio="xMidYMid meet">

<g transform="translate(0.000000,495.000000) scale(0.100000,-0.100000)"
fill="#000000" stroke="none">
<path d="M4353 3555 c-29 -8 -68 -21 -88 -29 -25 -11 -54 -14 -98 -10 -128 12
-279 -52 -408 -174 -153 -144 -275 -374 -331 -624 -42 -186 -28 -590 24 -704
11 -22 7 -29 -45 -75 -32 -28 -71 -71 -88 -95 -36 -53 -79 -163 -79 -204 0
-16 -7 -35 -16 -42 -9 -7 -32 -28 -51 -46 -34 -31 -35 -35 -29 -82 6 -41 2
-58 -19 -100 -31 -60 -42 -157 -26 -217 6 -22 26 -63 44 -90 26 -39 40 -50 72
-57 22 -4 61 -17 87 -27 55 -22 103 -24 138 -4 14 8 38 11 55 8 39 -8 32 -1
-40 37 -42 22 -54 26 -42 12 30 -33 16 -52 -39 -52 -33 0 -61 15 -101 53 -28
26 -31 27 -26 8 6 -25 -7 -27 -47 -6 -18 9 -38 35 -55 69 -25 50 -27 64 -23
150 3 88 5 98 36 141 30 42 31 47 16 62 -30 31 0 88 61 117 37 18 130 21 168
7 40 -15 69 -53 64 -81 -4 -22 2 -28 55 -54 100 -50 148 -125 127 -201 -13
-46 -21 -49 -64 -24 -28 17 -34 26 -30 43 2 11 -2 8 -10 -9 -16 -34 -20 -85
-6 -85 5 0 8 8 7 17 0 11 7 19 20 21 17 2 25 -6 38 -38 9 -22 16 -50 16 -61 0
-29 -26 -74 -56 -98 -19 -15 -22 -21 -11 -21 9 0 31 13 49 29 30 27 32 33 34
97 1 51 6 78 22 104 27 44 28 72 1 127 -20 42 -72 89 -138 125 -21 12 -31 25
-31 40 0 31 -24 65 -61 83 -33 17 -33 34 1 110 17 39 64 95 78 95 4 0 25 -39
47 -87 74 -158 207 -328 333 -423 115 -86 295 -169 405 -185 26 -4 50 -12 54
-18 10 -16 -81 -93 -132 -112 l-45 -18 -29 32 c-32 34 -82 42 -116 17 -12 -8
-33 -12 -56 -9 -37 5 -142 -24 -186 -52 -34 -23 -57 -96 -50 -163 5 -47 11
-61 35 -82 26 -22 30 -33 35 -101 6 -86 23 -127 75 -182 48 -50 126 -78 232
-84 112 -7 195 10 232 47 26 26 28 35 28 103 0 60 -4 80 -22 107 -37 54 -71
73 -138 78 -77 6 -93 22 -57 60 15 15 31 42 38 59 8 24 20 35 47 44 98 32 213
115 267 194 21 30 44 55 51 55 36 0 202 -164 275 -271 39 -58 41 -64 30 -94
-18 -51 -13 -81 19 -113 17 -17 30 -39 30 -49 0 -66 65 -165 131 -199 63 -32
152 0 246 88 42 41 53 57 53 83 0 27 10 39 65 83 69 56 134 132 165 193 30 57
53 164 46 204 -14 72 -120 155 -197 155 -121 0 -218 -90 -268 -248 -12 -40
-24 -72 -27 -72 -3 0 -16 7 -29 16 -18 12 -37 15 -68 10 l-43 -7 -57 78 c-30
43 -79 100 -106 128 -28 27 -51 54 -51 60 0 6 23 16 52 23 125 29 253 122 394
287 64 74 135 212 168 325 28 98 22 95 136 54 90 -32 150 -29 237 11 91 41
118 28 139 -69 12 -53 40 -70 164 -102 95 -24 117 -26 240 -22 137 5 231 28
259 62 7 8 18 55 27 106 17 111 26 130 61 130 17 0 40 15 69 44 39 39 44 48
44 89 0 25 -5 58 -12 72 -10 22 -8 29 14 53 15 15 32 46 39 69 11 39 10 46
-14 92 -22 44 -24 51 -11 62 27 22 44 67 44 113 0 39 -5 51 -37 84 -21 22 -44
41 -51 43 -9 3 -8 36 9 154 11 82 23 153 25 157 3 4 13 8 23 8 32 0 41 20 26
58 -8 19 -15 43 -15 53 0 20 -26 49 -43 49 -7 0 -3 -7 7 -15 11 -8 21 -27 22
-42 2 -16 6 -40 10 -54 5 -24 2 -28 -28 -35 -43 -10 -657 -7 -768 4 -57 6 -4
7 161 4 136 -3 255 -1 265 3 11 5 86 14 168 21 81 7 153 17 158 22 6 6 8 18 5
26 -5 14 -16 15 -64 9 -108 -15 -568 -8 -700 10 -67 10 -136 17 -155 17 -31 0
-33 -3 -35 -35 -2 -24 2 -37 15 -44 14 -8 9 -10 -22 -11 -37 0 -38 1 -32 28
21 86 23 103 12 99 -6 -2 -13 -19 -17 -38 -3 -19 -11 -45 -18 -58 -14 -25 -7
-37 24 -43 17 -3 21 -16 31 -118 7 -63 14 -150 17 -193 l6 -78 -45 -21 c-91
-43 -121 -144 -70 -239 29 -55 41 -193 20 -231 -7 -12 -13 -44 -14 -70 0 -58
-23 -78 -92 -78 -59 0 -86 10 -132 50 l-36 32 0 127 c0 244 -38 438 -122 631
-51 118 -138 266 -209 355 -21 28 -39 57 -39 66 0 9 -13 33 -30 54 -16 21 -30
42 -30 47 0 5 -20 17 -44 28 -24 10 -47 23 -50 29 -4 6 -20 11 -36 11 -16 0
-41 11 -57 24 -129 108 -349 168 -480 131z m210 -30 c82 -17 241 -93 245 -117
2 -10 -7 -22 -23 -30 -23 -13 -32 -11 -103 24 -91 45 -207 76 -314 85 -75 6
-92 13 -66 29 41 25 164 30 261 9z m-297 -63 c53 -27 164 -148 214 -232 44
-76 90 -182 90 -207 -1 -33 -121 113 -171 208 -41 75 -120 157 -183 188 -40
19 -58 23 -105 18 -159 -17 -385 -205 -486 -404 -61 -123 -118 -343 -132 -518
-10 -117 -1 -324 17 -411 14 -64 10 -94 -13 -94 -16 0 -35 66 -53 190 -44 307
20 652 168 905 95 163 290 336 417 372 67 19 186 11 237 -15z m251 -145 c30
-32 53 -66 57 -85 3 -18 9 -45 12 -62 10 -55 -14 -31 -70 69 -31 54 -58 106
-62 115 -12 30 13 16 63 -37z m651 -254 c73 -115 114 -203 165 -353 80 -238
104 -425 82 -637 -20 -191 -53 -312 -120 -447 -97 -196 -241 -342 -423 -428
-57 -27 -106 -47 -109 -44 -12 12 11 47 35 52 15 4 50 18 77 32 206 102 360
297 428 543 19 68 40 151 46 184 18 104 24 265 12 362 -28 230 -131 520 -246
693 -41 62 -44 71 -34 94 7 14 18 26 25 26 6 0 34 -35 62 -77z m-543 36 c11
-17 -1 -21 -15 -4 -8 9 -8 15 -2 15 6 0 14 -5 17 -11z m320 -83 c85 -36 163
-215 168 -387 2 -79 1 -81 -27 -102 -16 -12 -51 -44 -78 -71 -45 -46 -50 -48
-65 -33 -15 15 -15 18 10 37 18 14 29 37 38 75 15 69 4 100 -40 110 -36 8 -39
22 -11 58 28 35 25 61 -11 102 -42 48 -76 45 -104 -7 -11 -21 -24 -38 -29 -38
-5 0 -6 34 -3 76 6 87 38 162 77 181 32 16 34 16 75 -1z m932 -12 c-3 -3 -12
-4 -19 -1 -8 3 -5 6 6 6 11 1 17 -2 13 -5z m-1574 -87 c18 -8 49 -32 69 -55
80 -89 121 -212 122 -367 1 -83 -3 -108 -21 -148 -13 -27 -26 -47 -30 -45 -5
2 -34 16 -66 31 -48 22 -57 31 -52 45 4 9 10 42 12 73 6 61 -10 89 -50 89 -49
0 -54 16 -18 60 31 38 32 44 20 67 -20 36 -67 73 -95 73 -34 0 -62 -32 -75
-85 -6 -25 -15 -45 -19 -45 -15 0 -17 106 -3 173 12 54 22 76 52 108 32 33 44
39 80 39 23 0 56 -6 74 -13z m1722 -119 c118 -13 520 -16 619 -5 l69 8 -7 -63
c-11 -98 -14 -104 -56 -121 -74 -29 -101 -117 -59 -187 l21 -34 -29 -26 c-17
-14 -35 -35 -42 -47 -18 -35 -13 -97 9 -126 l20 -26 -20 -33 c-31 -51 -25 -93
23 -145 28 -32 14 -102 -25 -120 -121 -59 -600 -27 -643 41 -7 13 -17 92 -24
201 -16 253 -16 252 13 259 35 9 81 50 96 86 15 36 22 37 35 8 12 -26 67 -37
91 -17 15 12 19 56 6 75 -10 15 -57 30 -48 15 4 -6 14 -11 21 -11 20 0 30 -47
15 -65 -15 -18 -51 -20 -68 -3 -18 18 -15 55 6 67 16 10 16 10 -1 11 -10 0
-20 -7 -23 -15 -10 -24 -22 -17 -29 15 -9 43 -58 80 -105 80 -45 0 -46 1 -55
119 l-7 84 48 -7 c27 -3 94 -12 149 -18z m733 -195 c26 -24 43 -77 35 -114 -3
-16 -21 -43 -40 -59 -44 -39 -93 -41 -130 -4 -22 22 -25 32 -21 76 6 56 29 86
81 105 44 16 52 16 75 -4z m-807 -32 c32 -33 36 -56 15 -106 -18 -43 -69 -75
-120 -75 -36 0 -38 -1 -24 -17 12 -14 20 -71 32 -233 9 -118 19 -227 22 -242
5 -23 2 -28 -15 -28 -29 0 -91 58 -112 105 -21 45 -25 120 -8 131 7 4 26 -10
45 -32 l34 -39 -30 59 c-24 47 -30 70 -30 125 0 51 -6 79 -27 121 -33 71 -37
147 -8 186 23 30 121 73 168 73 19 1 39 -9 58 -28z m-722 -100 c38 -24 -31
-73 -74 -53 -23 11 -33 40 -18 55 9 10 76 8 92 -2z m-355 -67 c39 -15 -13 -72
-54 -59 -26 8 -26 30 2 49 25 18 30 19 52 10z m1873 -22 c18 -11 33 -59 33
-104 0 -55 -51 -108 -104 -108 -44 0 -91 22 -106 49 -19 37 -12 89 18 122 21
24 39 32 82 39 30 4 57 8 60 9 3 0 10 -3 17 -7z m-2566 -103 c46 -23 49 -48 8
-63 -59 -20 -119 26 -83 65 21 24 26 24 75 -2z m2550 -156 c19 -48 4 -104 -35
-140 -20 -18 -45 -33 -56 -33 -22 0 -27 15 -9 26 7 4 0 13 -17 25 -52 33 -69
95 -37 131 12 14 31 18 80 18 60 0 64 -1 74 -27z m-1771 -5 c-1 -30 -58 -93
-105 -117 -99 -51 -293 -38 -409 28 -62 35 -73 57 -25 47 19 -4 90 -10 159
-13 111 -4 136 -2 229 21 58 14 109 30 115 36 14 14 36 13 36 -2z m-321 -258
c35 -18 39 -18 37 -2 -1 13 8 18 39 20 48 3 104 -24 125 -61 13 -23 13 -28 -4
-46 -28 -31 -112 -46 -174 -31 -78 18 -194 103 -177 129 11 19 112 13 154 -9z
m-1013 -97 c59 -127 118 -213 201 -298 191 -192 365 -288 578 -318 104 -14
113 -33 15 -31 -133 3 -352 80 -472 166 -123 89 -263 253 -340 398 -62 118
-72 148 -58 165 7 8 16 15 21 15 5 0 30 -44 55 -97z m1264 -26 c0 -46 -70 -87
-147 -87 -94 0 -98 33 -6 44 35 4 75 16 98 31 46 28 55 30 55 12z m500 -647
c0 -10 -10 -25 -22 -31 -13 -7 -38 -25 -56 -40 -71 -62 -86 -19 -17 48 50 47
95 59 95 23z m-1265 -110 c22 -24 13 -37 -30 -42 -28 -3 -30 -6 -33 -46 -2
-28 3 -53 13 -69 15 -22 22 -25 57 -19 40 7 40 6 34 -21 -21 -86 -145 -65
-181 31 -21 54 -16 101 15 151 19 31 26 35 64 35 30 0 48 -6 61 -20z m959
-143 c23 -17 13 -39 -29 -62 -42 -22 -100 -89 -121 -140 -17 -41 -33 -41 -52
-2 -18 37 -2 92 42 144 55 63 121 88 160 60z m-832 -236 c27 -25 31 -33 22
-48 -17 -27 -43 -27 -107 2 -51 22 -56 27 -47 44 22 41 87 42 132 2z"/>
<path d="M6162 2508 c-15 -15 -16 -54 -2 -63 6 -4 10 6 10 24 0 23 6 31 28 39
l27 10 -25 1 c-15 1 -31 -4 -38 -11z"/>
<path d="M6240 2480 c0 -25 4 -39 10 -35 6 3 10 19 10 35 0 16 -4 32 -10 35
-6 4 -10 -10 -10 -35z"/>
<path d="M6292 2511 c-8 -5 -12 -21 -10 -37 2 -22 9 -30 28 -33 l25 -3 -25 20
c-21 17 -22 22 -11 36 30 35 65 7 55 -43 -4 -20 -15 -36 -28 -41 -19 -8 -19
-9 5 -9 31 -1 39 14 39 69 0 25 -5 40 -16 44 -22 8 -47 7 -62 -3z"/>
<path d="M6442 2478 c1 -37 2 -38 5 -10 4 28 8 32 33 32 24 0 29 -5 33 -27 4
-21 4 -19 3 7 -1 33 -3 35 -38 38 l-38 3 2 -43z"/>
<path d="M6402 2480 c0 -19 2 -27 5 -17 2 9 2 25 0 35 -3 9 -5 1 -5 -18z"/>
<path d="M6063 2340 c-40 -24 -58 -82 -50 -159 5 -43 12 -61 37 -85 28 -28 37
-31 109 -34 128 -6 171 31 171 148 0 113 -40 150 -162 150 -55 0 -81 -5 -105
-20z m159 -30 c47 -13 58 -34 58 -104 0 -80 -19 -96 -110 -96 -69 0 -71 1 -90
33 -34 56 -22 149 22 167 31 12 76 12 120 0z"/>
<path d="M6148 2224 c-38 -31 -68 -60 -68 -64 0 -4 6 -13 14 -19 11 -10 29 1
90 54 42 37 74 71 71 76 -13 20 -43 6 -107 -47z"/>
<path d="M6374 2345 c-8 -20 4 -35 27 -35 18 0 19 -8 19 -126 0 -124 0 -125
23 -122 22 3 22 6 25 151 l3 147 -46 0 c-31 0 -47 -5 -51 -15z"/>
<path d="M6489 3314 l-26 -26 -275 2 c-161 0 -285 -3 -301 -9 -19 -7 -29 -21
-37 -53 -7 -24 -16 -51 -21 -60 -7 -13 -5 -18 4 -18 7 0 19 22 26 49 25 99 72
94 52 -5 -14 -75 -15 -71 17 -78 51 -10 597 -28 679 -21 81 7 82 7 71 28 -6
12 -26 63 -43 114 -28 80 -30 93 -16 96 9 3 -11 5 -44 6 -53 1 -64 -2 -86 -25z
m76 6 c-11 -4 -31 -19 -44 -34 -40 -43 -78 -49 -255 -42 -88 4 -190 9 -226 13
-55 5 -61 7 -40 15 15 6 111 8 245 4 l220 -6 25 30 c19 23 33 30 60 29 28 0
31 -2 15 -9z"/>
<path d="M6641 3304 c-1 -12 12 -35 28 -52 20 -20 32 -45 36 -75 4 -27 13 -48
22 -51 11 -5 13 -2 8 11 -3 10 -11 40 -18 67 -7 33 -18 51 -32 58 -12 5 -27
22 -32 36 -10 24 -11 24 -12 6z"/>
<path d="M3235 1480 c-8 -13 5 -13 25 0 13 8 13 10 -2 10 -9 0 -20 -4 -23 -10z"/>
<path d="M3311 1343 c-1 -28 4 -55 9 -58 12 -7 12 48 0 85 -6 20 -8 14 -9 -27z"/>
<path d="M3240 1307 c0 -30 4 -46 10 -42 13 8 13 55 0 75 -7 11 -10 2 -10 -33z"/>
</g>
</svg>
